<?xml version="1.0" encoding="UTF-8"?>
<!DOCTYPE svg PUBLIC "-//W3C//DTD SVG 1.1//EN" "http://www.w3.org/Graphics/SVG/1.1/DTD/svg11.dtd">
<!-- Creator: CorelDRAW 2018 (64-Bit) -->
<svg xmlns="http://www.w3.org/2000/svg" xml:space="preserve" width="1210mm" height="1297mm" version="1.1" style="shape-rendering:geometricPrecision; text-rendering:geometricPrecision; image-rendering:optimizeQuality; fill-rule:evenodd; clip-rule:evenodd"
viewBox="0 0 121000 129700"
 xmlns:xlink="http://www.w3.org/1999/xlink">
 <defs>
  <style type="text/css">
   <![CDATA[
    .str0 {stroke:#748187;stroke-width:7.62;stroke-miterlimit:22.9256}
    .fil8 {fill:#D6DFDF}
    .fil6 {fill:#80C7C1}
    .fil9 {fill:#D4E28A}
    .fil5 {fill:#F17957}
    .fil7 {fill:#FAE491}
    .fil4 {fill:#748187;fill-rule:nonzero}
    .fil1 {fill:#80C7C1;fill-rule:nonzero}
    .fil2 {fill:#D4E28A;fill-rule:nonzero}
    .fil0 {fill:#F17957;fill-rule:nonzero}
    .fil3 {fill:#FAE491;fill-rule:nonzero}
   ]]>
  </style>
 </defs>
 <g id="Слой_x0020_1">
  <metadata id="CorelCorpID_0Corel-Layer"/>
  <g id="_2702238703248">
   <g>
    <path class="fil0" d="M91957.57 54996.9l0 15270.88c0,614.58 -76.53,1165.74 -229.36,1652.53 -163.83,521.9 -417.29,968.21 -760.15,1338.22 -337.72,364.63 -721.77,639.16 -1150.99,821.71 -430.4,183.48 -896.83,275.22 -1398.84,275.22 -508.09,0 -976.17,-94.55 -1403.28,-283.42 -434.61,-192.14 -815.15,-476.03 -1140.93,-850.48l0 -3.52c-320.87,-369.3 -561.46,-813.51 -719.43,-1331.43 -148.38,-485.39 -223.04,-1025.08 -223.04,-1618.83l0 -15112.21c0,-607.56 75.13,-1152.86 223.74,-1635.21 160.32,-520.73 405.12,-960.72 732.3,-1319.26 326.01,-357.14 706.79,-627.69 1141.16,-810.24 427.35,-179.74 890.98,-270.08 1389.48,-270.08 500.14,0 964.23,88.94 1392.05,266.57 431.09,179.04 814.92,446.31 1150.99,800.17 339.35,357.38 593.05,781.92 759.68,1270.35 157.51,462.22 236.62,976.17 236.62,1539.03z"/>
    <path class="fil1" d="M76488.68 71516.37l-4101.26 -6727.15 -1803.72 1699.81 0 3818.3c0,601.94 -83.78,1146.78 -249.72,1631.47 -177.16,517.46 -446.77,961.89 -806.25,1330.03 -348.48,356.91 -727.39,626.05 -1136.95,807.43 -421.5,186.29 -868.04,279.2 -1339.86,279.2 -1079.38,0 -1942.97,-373.75 -2580.49,-1120.8 -315.48,-366.5 -549.05,-810.23 -700.71,-1331.43 -141.59,-485.86 -212.03,-1031.17 -212.03,-1635.45l0 -22516.42c0,-657.41 65.53,-1245.31 196.59,-1763.93 140.89,-555.84 359.48,-1034.68 655.77,-1435.12 310.57,-425.94 695.32,-747.04 1151.46,-963.06 443.5,-210.4 940.83,-315.24 1489.41,-315.24 525.41,0 1006.36,93.84 1440.73,280.37 444.9,191.44 832.7,478.37 1159.65,860.32 321.57,371.65 560.05,823.81 715.68,1356.01 144.64,495.69 216.72,1052.69 216.72,1670.08l0 10611.45 4426.1 -4642.81c378.91,-399.04 714.28,-736.05 1004.72,-1010.81 305.19,-288.33 570.11,-515.35 792.68,-680.34l7.02 -3.51c279.91,-204.08 582.99,-354.57 908.77,-451.46 319.93,-95.25 659.28,-142.53 1018.76,-142.53 435.78,0 841.83,72.32 1216.76,215.32 382.88,146.04 727.15,365.09 1031.4,655.53 310.8,297 545.07,632.84 701.87,1008 155.4,371.88 232.87,773.02 232.87,1204.82 0,568.94 -232.87,1186.56 -696.03,1853.8 -395.05,568.94 -975.46,1199.67 -1738.42,1891.95l-1.64 -1.87 -2264.54 2072.39 5022.2 7894.99 3.51 0c191.44,301.21 365.33,584.16 520.03,844.64 147.91,249.02 271.24,468.78 369.3,656.94 120.07,221.87 210.4,441.86 271.25,659.28 66.47,237.32 99.47,468.31 99.47,693.22 0,509.26 -75.13,978.74 -223.27,1407.03 -157.27,453.09 -392.25,844.63 -703.52,1174.39 -316.41,334.67 -686.89,587.67 -1108.16,756.88 -409.8,164.29 -857.28,247.37 -1339.39,247.37 -417.05,0 -798.77,-60.38 -1144.91,-181.14 -374.22,-131.06 -694.62,-330.93 -960.02,-599.6 -204.54,-201.28 -437.41,-478.14 -699.06,-828.96 -234.28,-314.08 -510.67,-716.85 -829.2,-1208.8l-13.57 -20.59z"/>
    <path class="fil2" d="M59487.32 54996.9l0 15270.88c0,614.58 -76.53,1165.74 -229.35,1652.53 -163.83,521.9 -417.29,968.21 -760.16,1338.22 -337.71,364.63 -721.76,639.16 -1150.99,821.71 -430.39,183.48 -896.83,275.22 -1398.83,275.22 -508.1,0 -976.17,-94.55 -1403.29,-283.42 -434.6,-192.14 -815.15,-476.03 -1140.93,-850.48l0 -3.52c-320.86,-369.3 -561.45,-813.51 -719.43,-1331.43 -148.37,-485.39 -223.03,-1025.08 -223.03,-1618.83l0 -15112.21c0,-607.56 75.12,-1152.86 223.74,-1635.21 160.31,-520.73 405.11,-960.72 732.3,-1319.26 326.01,-357.14 706.79,-627.69 1141.16,-810.24 427.35,-179.74 890.98,-270.08 1389.48,-270.08 500.13,0 964.23,88.94 1392.05,266.57 431.09,179.04 814.91,446.31 1150.99,800.17 339.35,357.38 593.05,781.92 759.68,1270.35 157.51,462.22 236.61,976.17 236.61,1539.03z"/>
    <path class="fil3" d="M47883.32 50260.46l-5390.57 0 0 19716.65c0,680.11 -78.64,1281.58 -236.61,1805.12 -170.85,565.2 -436.01,1041.93 -795.96,1429.73 -349.88,381.25 -756.41,667.94 -1216.52,860.08 -452.63,189.11 -947.38,283.42 -1481.92,283.42 -540.63,0 -1041.93,-95.72 -1499.71,-287.16 -466.2,-194.72 -877.64,-484.46 -1231.97,-869.21 -355.73,-386.63 -621.83,-861.96 -795.49,-1427.39 -161.95,-526.58 -243.4,-1124.78 -243.4,-1794.59l0 -19716.65 -5390.56 0c-570.82,0 -1080.08,-67.16 -1527.79,-199.63 -494.76,-146.27 -909.7,-371.88 -1244.61,-674.02l-3.51 -6.79c-335.84,-307.76 -590.01,-664.66 -758.98,-1069.78 -165.23,-395.06 -249.02,-828.49 -249.02,-1298.67 0,-482.35 86.83,-924.91 258.85,-1326.99 177.63,-415.18 442.56,-774.89 792.68,-1078.44 343.8,-297.69 756.41,-517.45 1237.12,-659.51 444.9,-131.53 943.63,-197.06 1495.26,-197.06l18282.71 0c580.88,0 1097.16,67.17 1550.49,201.97 494.05,148.15 912.04,377.27 1255.14,688.07l6.79 3.51c332.33,304.95 585.55,662.09 757.1,1069.78 168.74,399.97 253.93,833.64 253.93,1298.67 0,472.29 -86.59,907.83 -257.2,1305.69l0 3.28c-175.06,407.22 -435.08,764.36 -777.47,1069.78l-6.79 3.51c-341.46,299.8 -758.04,523.07 -1249.05,667 -451.69,132.47 -963.06,199.63 -1532.94,199.63z"/>
    <path class="fil1" d="M88468.08 83473.76c-426.18,0 -827.09,-67.17 -1201.08,-201.04 -378.2,-135.27 -725.28,-339.12 -1039.82,-609.9 -340.76,-293.24 -594.92,-647.11 -762.49,-1059.25 -158.91,-390.84 -238.25,-827.08 -238.25,-1306.86 0,-446.77 84.25,-865 252.99,-1252.79 168.74,-387.8 417.99,-731.84 748.22,-1029.06 315.48,-284.36 661.85,-500.84 1037.48,-647.82 380.78,-148.61 781.92,-223.73 1202.95,-223.73 818.43,0 1535.98,261.18 2168.35,782.85l6.79 3.51c344.26,288.1 602.64,639.39 774.66,1053.63 163.12,392.01 244.57,829.89 244.57,1313.41 0,472.99 -78.87,904.32 -236.38,1292.59 -164.76,405.82 -414.48,756.87 -747.98,1051.76 -307.99,272.18 -647.82,479.77 -1020.64,619.96 -373.52,141.83 -769.98,212.74 -1189.37,212.74z"/>
    <path class="fil1" d="M91957.57 88340.08l0 15270.89c0,614.58 -76.53,1165.73 -229.36,1652.53 -163.83,521.9 -417.29,968.21 -760.15,1338.22 -337.72,364.63 -721.77,639.15 -1150.99,821.7 -430.4,183.49 -896.83,275.23 -1398.84,275.23 -508.09,0 -976.17,-94.55 -1403.28,-283.42 -434.61,-192.14 -815.15,-476.03 -1140.93,-850.49l0 -3.51c-320.87,-369.31 -561.46,-813.51 -719.43,-1331.43 -148.38,-485.4 -223.04,-1025.08 -223.04,-1618.83l0 -15112.21c0,-607.56 75.13,-1152.87 223.74,-1635.22 160.32,-520.73 405.12,-960.72 732.3,-1319.26 326.01,-357.14 706.79,-627.69 1141.16,-810.23 427.35,-179.74 890.98,-270.08 1389.48,-270.08 500.14,0 964.23,88.93 1392.05,266.57 431.09,179.03 814.92,446.3 1150.99,800.17 339.35,357.37 593.05,781.91 759.68,1270.35 157.51,462.22 236.62,976.16 236.62,1539.02z"/>
    <path class="fil2" d="M76488.68 104859.55l-4101.26 -6727.15 -1803.72 1699.81 0 3818.31c0,601.94 -83.78,1146.78 -249.72,1631.47 -177.16,517.45 -446.77,961.89 -806.25,1330.03 -348.48,356.9 -727.39,626.04 -1136.95,807.42 -421.5,186.29 -868.04,279.21 -1339.86,279.21 -1079.38,0 -1942.97,-373.76 -2580.49,-1120.8 -315.48,-366.5 -549.05,-810.24 -700.71,-1331.44 -141.59,-485.86 -212.03,-1031.16 -212.03,-1635.44l0 -22516.43c0,-657.4 65.53,-1245.3 196.59,-1763.93 140.89,-555.84 359.48,-1034.67 655.77,-1435.11 310.57,-425.95 695.32,-747.05 1151.46,-963.06 443.5,-210.4 940.83,-315.25 1489.41,-315.25 525.41,0 1006.36,93.85 1440.73,280.38 444.9,191.44 832.7,478.37 1159.65,860.32 321.57,371.65 560.05,823.8 715.68,1356 144.64,495.69 216.72,1052.7 216.72,1670.09l0 10611.45 4426.1 -4642.82c378.91,-399.03 714.28,-736.04 1004.72,-1010.8 305.19,-288.34 570.11,-515.35 792.68,-680.35l7.02 -3.51c279.91,-204.08 582.99,-354.56 908.77,-451.45 319.93,-95.26 659.28,-142.53 1018.76,-142.53 435.78,0 841.83,72.32 1216.76,215.31 382.88,146.04 727.15,365.1 1031.4,655.54 310.8,296.99 545.07,632.83 701.87,1007.99 155.4,371.89 232.87,773.03 232.87,1204.82 0,568.95 -232.87,1186.57 -696.03,1853.81 -395.05,568.94 -975.46,1199.67 -1738.42,1891.95l-1.64 -1.87 -2264.54 2072.39 5022.2 7894.99 3.51 0c191.44,301.2 365.33,584.15 520.03,844.64 147.91,249.01 271.24,468.77 369.3,656.94 120.07,221.86 210.4,441.86 271.25,659.28 66.47,237.31 99.47,468.3 99.47,693.21 0,509.27 -75.13,978.74 -223.27,1407.03 -157.27,453.1 -392.25,844.64 -703.52,1174.4 -316.41,334.67 -686.89,587.66 -1108.16,756.87 -409.8,164.29 -857.28,247.38 -1339.39,247.38 -417.05,0 -798.77,-60.38 -1144.91,-181.15 -374.22,-131.06 -694.62,-330.92 -960.02,-599.6 -204.54,-201.27 -437.41,-478.14 -699.06,-828.96 -234.28,-314.07 -510.67,-716.85 -829.2,-1208.79l-13.57 -20.6z"/>
    <path class="fil3" d="M55997.84 83473.76c-426.19,0 -827.09,-67.17 -1201.08,-201.04 -378.2,-135.27 -725.28,-339.12 -1039.83,-609.9 -340.75,-293.24 -594.92,-647.11 -762.49,-1059.25 -158.91,-390.84 -238.25,-827.08 -238.25,-1306.86 0,-446.77 84.26,-865 253,-1252.79 168.74,-387.8 417.99,-731.84 748.21,-1029.06 315.48,-284.36 661.86,-500.84 1037.49,-647.82 380.77,-148.61 781.91,-223.73 1202.95,-223.73 818.42,0 1535.98,261.18 2168.34,782.85l6.79 3.51c344.27,288.1 602.65,639.39 774.66,1053.63 163.13,392.01 244.57,829.89 244.57,1313.41 0,472.99 -78.87,904.32 -236.38,1292.59 -164.76,405.82 -414.47,756.87 -747.98,1051.76 -307.99,272.18 -647.81,479.77 -1020.63,619.96 -373.52,141.83 -769.98,212.74 -1189.37,212.74z"/>
    <path class="fil3" d="M59487.32 88340.08l0 15270.89c0,614.58 -76.53,1165.73 -229.35,1652.53 -163.83,521.9 -417.29,968.21 -760.16,1338.22 -337.71,364.63 -721.76,639.15 -1150.99,821.7 -430.39,183.49 -896.83,275.23 -1398.83,275.23 -508.1,0 -976.17,-94.55 -1403.29,-283.42 -434.6,-192.14 -815.15,-476.03 -1140.93,-850.49l0 -3.51c-320.86,-369.31 -561.45,-813.51 -719.43,-1331.43 -148.37,-485.4 -223.03,-1025.08 -223.03,-1618.83l0 -15112.21c0,-607.56 75.12,-1152.87 223.74,-1635.22 160.31,-520.73 405.11,-960.72 732.3,-1319.26 326.01,-357.14 706.79,-627.69 1141.16,-810.23 427.35,-179.74 890.98,-270.08 1389.48,-270.08 500.13,0 964.23,88.93 1392.05,266.57 431.09,179.03 814.91,446.3 1150.99,800.17 339.35,357.37 593.05,781.91 759.68,1270.35 157.51,462.22 236.61,976.16 236.61,1539.02z"/>
    <path class="fil0" d="M47883.32 83603.65l-5390.57 0 0 19716.64c0,680.11 -78.64,1281.59 -236.61,1805.13 -170.85,565.19 -436.01,1041.93 -795.96,1429.72 -349.88,381.25 -756.41,667.95 -1216.52,860.09 -452.63,189.1 -947.38,283.42 -1481.92,283.42 -540.63,0 -1041.93,-95.72 -1499.71,-287.17 -466.2,-194.71 -877.64,-484.45 -1231.97,-869.21 -355.73,-386.63 -621.83,-861.95 -795.49,-1427.39 -161.95,-526.58 -243.4,-1124.78 -243.4,-1794.59l0 -19716.64 -5390.56 0c-570.82,0 -1080.08,-67.17 -1527.79,-199.63 -494.76,-146.28 -909.7,-371.89 -1244.61,-674.03l-3.51 -6.79c-335.84,-307.75 -590.01,-664.66 -758.98,-1069.78 -165.23,-395.05 -249.02,-828.49 -249.02,-1298.67 0,-482.34 86.83,-924.91 258.85,-1326.98 177.63,-415.18 442.56,-774.9 792.68,-1078.44 343.8,-297.7 756.41,-517.46 1237.12,-659.52 444.9,-131.53 943.63,-197.06 1495.26,-197.06l18282.71 0c580.88,0 1097.16,67.17 1550.49,201.98 494.05,148.14 912.04,377.26 1255.14,688.06l6.79 3.52c332.33,304.94 585.55,662.08 757.1,1069.78 168.74,399.96 253.93,833.63 253.93,1298.66 0,472.29 -86.59,907.83 -257.2,1305.69l0 3.28c-175.06,407.22 -435.08,764.36 -777.47,1069.78l-6.79 3.51c-341.46,299.8 -758.04,523.07 -1249.05,667.01 -451.69,132.46 -963.06,199.63 -1532.94,199.63z"/>
    <path class="fil2" d="M52769.07 46965.23c-170.62,-97.12 -304.95,-199.16 -403.02,-321.8 -129.42,-161.72 -194.25,-353.86 -194.25,-607.32 0,-280.85 114.45,-535.48 298.4,-719.67 184.42,-184.18 439.05,-298.63 719.9,-298.63 411.67,0 820.06,171.55 1225.65,441.63l175.99 123.1 -123.33 -175.76c-270.08,-405.58 -441.63,-813.98 -441.63,-1225.65 0,-280.84 114.44,-535.47 298.4,-719.66 184.42,-184.19 439.05,-298.63 719.89,-298.63 253.7,0 446.08,64.83 607.56,194.25 122.4,98.06 224.91,232.16 321.8,402.07 96.66,-169.91 199.17,-304.01 321.8,-402.07 161.72,-129.42 353.87,-194.25 607.33,-194.25 280.84,0 535.47,114.44 719.66,298.4 184.19,184.42 298.63,439.05 298.63,719.89 0,411.67 -171.55,820.07 -441.63,1225.65l-122.87 175.76 175.53 -123.1c405.59,-270.08 813.98,-441.63 1225.65,-441.63 280.85,0 535.48,114.45 719.66,298.4 184.19,184.42 298.64,439.05 298.64,719.9 0,253.46 -64.83,445.6 -194.26,607.32 -97.82,122.4 -232.16,224.68 -402.54,321.8 170.15,96.89 304.25,199.17 402.54,321.8 129.43,161.49 194.26,353.86 194.26,607.56 0,280.84 -114.45,535.48 -298.4,719.66 -184.42,184.19 -439.05,298.63 -719.9,298.63 -411.67,0 -820.06,-171.55 -1225.65,-441.62l-175.53 -123.11 122.87 175.76c270.08,405.59 441.63,813.98 441.63,1225.65 0,280.85 -114.44,535.48 -298.4,719.67 -184.42,184.18 -439.05,298.63 -719.89,298.63 -253.46,0 -445.61,-64.83 -607.33,-194.25 -122.63,-98.07 -224.67,-232.17 -321.8,-402.78 -97.12,170.61 -199.4,304.71 -321.8,402.78 -161.48,129.42 -353.86,194.25 -607.56,194.25 -280.84,0 -535.47,-114.45 -719.66,-298.4 -184.19,-184.42 -298.63,-439.05 -298.63,-719.9 0,-411.67 171.55,-820.06 441.63,-1225.65l123.33 -175.76 -175.99 123.11c-405.59,270.07 -813.98,441.62 -1225.65,441.62 -280.85,0 -535.48,-114.44 -719.66,-298.39 -184.19,-184.42 -298.64,-439.06 -298.64,-719.9 0,-253.7 64.83,-446.07 194.25,-607.56 98.07,-122.4 232.4,-224.91 403.02,-321.8z"/>
    <path class="fil0" d="M88468.08 50130.57c-426.18,0 -827.09,-67.16 -1201.08,-201.03 -378.2,-135.28 -725.28,-339.12 -1039.82,-609.9 -340.76,-293.25 -594.92,-647.11 -762.49,-1059.25 -158.91,-390.84 -238.25,-827.09 -238.25,-1306.86 0,-446.78 84.25,-865 252.99,-1252.8 168.74,-387.8 417.99,-731.83 748.22,-1029.06 315.48,-284.35 661.85,-500.84 1037.48,-647.81 380.78,-148.61 781.92,-223.74 1202.95,-223.74 818.43,0 1535.98,261.19 2168.35,782.85l6.79 3.51c344.26,288.1 602.64,639.39 774.66,1053.64 163.12,392.01 244.57,829.89 244.57,1313.41 0,472.99 -78.87,904.32 -236.38,1292.58 -164.76,405.82 -414.48,756.88 -747.98,1051.76 -307.99,272.19 -647.82,479.78 -1020.64,619.97 -373.52,141.82 -769.98,212.73 -1189.37,212.73z"/>
   </g>
   <path class="fil4 str0" d="M34309.19 126008.03c0,326.95 -22.23,552.32 -66.93,673.55 -81.68,212.98 -262.59,319.7 -542.5,319.7 -458.24,0 -728.09,-371.65 -809.77,-1117.29 -141.35,-1258.18 -210.63,-2979.52 -210.63,-5166.59 0,-2442.41 34.64,-3943.28 101.57,-4505.67 76.77,-614.12 319.46,-921.41 730.66,-921.41 483.06,0 725.75,292.32 725.75,876.94 0,146.04 -27.15,723.17 -81.68,1731.4 -52.19,1008 -79.33,1939.23 -79.33,2789.02 0,745.4 39.55,1708.93 116.31,2892.92 77,1181.42 116.55,1991.42 116.55,2427.43zm9085.3 -6110.7c0,502.95 -173.42,876.94 -522.83,1117.29 -153.53,106.49 -643.84,245.04 -1471.16,413.55 -1097.16,227.95 -2033.54,341.69 -2808.91,341.69 -351.52,0 -777.7,-24.57 -1275.5,-71.62 0,1830.4 693.45,2746.66 2080.59,2746.66 383.82,0 728.32,-108.83 1037.72,-324.38 156.1,-106.48 433.67,-364.16 834.81,-775.36 143.7,-148.61 297.22,-222.8 455.67,-222.8 203.14,0 379.14,76.76 527.75,227.95 146.04,150.95 220.46,336.78 220.46,557.24 0,183.25 -69.51,351.76 -210.63,505.28 -832.24,904.09 -1805.59,1354.84 -2922.65,1354.84 -2311.11,0 -3465.15,-1337.52 -3465.15,-4012.55 0,-1379.65 366.5,-2568.56 1102.08,-3571.64 837.15,-1136.95 1870.19,-1704.25 3103.56,-1704.25 960.96,0 1756.21,322.03 2377.81,966.1 624.18,644.07 936.38,1461.33 936.38,2452zm-1441.66 74.43c-29.72,-668.88 -205.49,-1196.4 -527.52,-1585.13 -322.03,-388.97 -723.41,-584.63 -1208.8,-584.63 -629.09,0 -1183.99,222.81 -1661.89,671.22 -495.46,450.76 -861.96,1089.91 -1104.66,1917.23 344.27,36.98 708.2,56.87 1097.17,56.87 938.72,0 2073.09,-158.44 3405.7,-475.56zm8649.52 -639.16c0,168.51 -54.53,312.21 -161.01,431.1 -106.49,118.89 -232.87,178.33 -379.14,178.33 -71.85,0 -351.52,-94.08 -834.58,-282.48 -483.05,-188.16 -956.04,-282.25 -1419.19,-282.25 -143.7,0 -297.23,9.83 -458.25,29.73 -180.91,787.53 -270.08,1510.94 -270.08,2167.18 0,847.21 143.7,1496.19 431.1,1951.86 284.82,453.33 683.62,681.05 1193.82,681.05 155.87,0 361.59,-49.39 616.69,-148.62 255.1,-98.99 438.35,-148.61 549.75,-148.61 388.97,0 582.28,227.95 582.28,683.62 0,294.89 -158.68,535.01 -478.14,718.49 -319.46,185.59 -755.47,277.34 -1305.22,277.34 -2050.86,0 -3076.41,-1367.25 -3076.41,-4101.73 0,-577.13 69.28,-1211.14 210.63,-1902.25 -136.21,19.9 -428.52,74.19 -876.93,165.93 -294.65,56.88 -512.78,86.6 -653.9,86.6 -517.69,0 -775.36,-198 -775.36,-594.45 0,-539.93 891.91,-891.68 2675.27,-1055.04 366.5,-1169.01 814.68,-1753.64 1344.77,-1753.64 163.6,0 302.15,59.45 416.12,178.34 113.98,118.89 171.08,262.59 171.08,430.86 0,126.38 -37.21,285.06 -109.06,478.14 -71.85,190.74 -146.27,383.82 -217.89,577.13 1882.36,62.02 2823.65,472.99 2823.65,1233.37zm2365.41 -1307.79c0,802.51 -37.21,1330.26 -109.06,1587.7 -86.59,319.7 -277.33,478.14 -571.98,478.14 -386.4,0 -582.05,-297.23 -582.05,-891.68 0,-116.32 7.25,-292.31 22.23,-525.18 14.75,-235.21 22.23,-413.54 22.23,-535.01 0,-203.14 -14.74,-477.9 -44.46,-829.66 -27.39,-349.18 -42.13,-597.02 -42.13,-743.06 0,-473.22 188.17,-711.01 564.73,-711.01 363.93,0 591.88,285.06 688.54,854.71 34.63,212.97 51.95,651.32 51.95,1315.05zm7368.88 210.63c0,483.05 -245.27,725.75 -733.24,725.75 -168.5,0 -302.14,-59.45 -398.79,-180.91 -66.94,-111.4 -138.79,-225.38 -210.64,-339.36 -299.56,-386.39 -698.36,-579.47 -1193.82,-579.47 -854.47,0 -1282.99,485.39 -1282.99,1456.41 0,336.78 76.77,626.75 232.87,869.44 128.72,208.06 364.16,443.27 703.51,703.28 762.73,584.63 1238.29,988.34 1426.69,1211.38 396.22,455.67 594.45,978.27 594.45,1567.81 0,772.79 -252.76,1401.88 -755.47,1889.84 -502.94,485.4 -1159.18,728.33 -1966.84,728.33 -770.22,0 -1401.88,-200.81 -1894.76,-601.95 -477.9,-386.39 -718.26,-874.36 -718.26,-1463.9 0,-594.45 257.67,-891.67 772.79,-891.67 431.09,0 653.9,331.86 668.88,995.59 349.18,416.11 740.49,624.17 1173.92,624.17 364.16,0 658.82,-111.4 889.11,-331.86 230.53,-220.46 344.5,-495.22 344.5,-824.75 0,-302.14 -141.36,-584.62 -421.26,-849.55 -4.92,-9.83 -361.59,-292.31 -1067.45,-849.55 -978.27,-772.79 -1468.81,-1679.45 -1468.81,-2719.74 0,-846.98 260.01,-1530.6 780.28,-2053.2 520.03,-522.61 1201.31,-782.85 2043.37,-782.85 691.11,0 1285.57,180.91 1778.45,545.07 468.07,341.69 703.51,725.74 703.51,1151.69zm13149.82 3177.75c0,1238.52 -369.08,2226.86 -1107.23,2965.01 -735.58,738.15 -1723.91,1106.99 -2962.44,1106.99 -691.11,0 -1364.66,-153.53 -2023.48,-460.58 -109.06,1134.37 -198.23,1832.97 -267.5,2095.56 -121.47,425.95 -344.5,638.92 -666.3,638.92 -203.15,0 -376.57,-62.02 -517.69,-188.17 -141.36,-126.38 -212.98,-282.48 -212.98,-465.73 0,29.72 39.56,-277.33 116.32,-921.4 99,-755.47 173.42,-1570.39 227.95,-2447.09 76.77,-1258.41 116.32,-2618.16 116.32,-4079.49 0,-289.74 -4.92,-624.17 -14.75,-998.16 -10.06,-376.57 -14.97,-601.95 -14.97,-678.71 0,-644.07 225.37,-966.1 673.79,-966.1 468.07,0 708.43,223.03 723.17,671.45l14.98 443.26c579.47,-564.73 1332.37,-847.21 2256.35,-847.21 1099.73,0 1979.01,366.74 2642.74,1102.31 676.36,750.56 1015.72,1761.13 1015.72,3029.14zm-1441.67 -14.75c0,-886.76 -205.48,-1572.72 -616.68,-2060.69 -411.21,-487.96 -983.43,-733.23 -1714.09,-733.23 -1141.86,0 -1845.14,361.58 -2112.65,1082.41l0 718.26c0,1124.55 -29.72,2226.63 -89.17,3311.62 624.18,297.23 1258.19,445.84 1902.25,445.84 839.49,0 1486.14,-240.36 1944.15,-718.26 458.24,-478.14 686.19,-1161.76 686.19,-2045.95zm4763.12 4609.59c0,326.95 -22.24,552.32 -66.94,673.55 -81.68,212.98 -262.59,319.7 -542.5,319.7 -458.24,0 -728.08,-371.65 -809.76,-1117.29 -141.36,-1258.18 -210.64,-2979.52 -210.64,-5166.59 0,-2442.41 34.64,-3943.28 101.58,-4505.67 76.76,-614.12 319.46,-921.41 730.66,-921.41 483.05,0 725.75,292.32 725.75,876.94 0,146.04 -27.15,723.17 -81.68,1731.4 -52.19,1008 -79.34,1939.23 -79.34,2789.02 0,745.4 39.55,1708.93 116.32,2892.92 76.99,1181.42 116.55,1991.42 116.55,2427.43zm8267.81 -4309.79c0,1325.12 -193.08,2709.68 -582.05,4156.03 -193.32,725.74 -483.05,1087.56 -864.53,1087.56 -393.65,0 -589.31,-223.03 -589.31,-666.3 0,-101.57 4.92,-178.33 14.75,-225.61 -492.88,267.74 -1003.08,401.37 -1530.6,401.37 -931.47,0 -1662.13,-262.59 -2184.73,-790.1 -525.18,-527.52 -787.54,-1265.67 -787.54,-2214.46 0,-960.95 282.25,-1723.91 849.56,-2288.64 564.73,-562.16 1317.62,-844.64 2253.77,-844.64 817.49,0 1508.6,272.65 2068.41,817.49 -91.74,-1912.08 -800.17,-2868.35 -2127.86,-2868.35 -294.65,0 -609.19,89.17 -945.97,267.5 -337.02,178.34 -554.9,267.51 -656.48,267.51 -165.93,0 -311.97,-66.7 -443.26,-202.91 -131.3,-136.21 -195.66,-289.97 -195.66,-465.74 0,-289.73 210.4,-557.24 631.44,-805.08 450.75,-264.93 988.33,-398.8 1612.51,-398.8 2318.36,0 3477.55,1590.28 3477.55,4773.17zm-1471.16 1691.62c0,-1228.46 -579.7,-1842.8 -1736.31,-1842.8 -1270.82,0 -1904.83,609.19 -1904.83,1827.82 0,1228.69 629.09,1842.81 1889.85,1842.81 547.41,0 975.93,-160.79 1285.56,-482.82 309.63,-322.04 465.73,-770.45 465.73,-1345.01zm8765.61 -6529.15c0,609.43 -247.84,1664.47 -740.72,3165.58 -455.67,1384.56 -1273.16,3138.19 -2454.58,5260.91 -237.78,480.47 -475.56,958.61 -718.26,1436.51 -208.06,373.99 -453.33,559.82 -740.72,559.82 -168.28,0 -321.8,-71.85 -460.59,-217.89 -136.21,-143.7 -205.48,-304.72 -205.48,-478.14 0,-314.54 212.97,-839.72 641.49,-1575.3 970.79,-1701.68 1476.07,-2583.29 1508.37,-2640.4 -946.21,-1275.5 -1696.77,-2464.4 -2246.52,-3564.14 -440.92,-876.94 -661.39,-1468.81 -661.39,-1778.44 0,-436.01 208.06,-653.9 626.75,-653.9 260.02,0 522.61,227.95 785.2,681.04 237.78,507.86 472.98,1018.06 705.85,1525.92 413.54,881.62 891.68,1704.02 1431.6,2464.41 356.67,-921.4 641.5,-1882.36 854.47,-2883.1 227.95,-1037.72 341.93,-1565.47 346.84,-1585.13 141.13,-393.88 361.59,-589.54 656.24,-589.54 448.42,0 671.45,289.74 671.45,871.79z"/>
   <g>
    <ellipse class="fil5" cx="51915.14" cy="20859.48" rx="4694.65" ry="4694.64"/>
    <ellipse class="fil6" cx="39469.3" cy="32282.03" rx="2661.57" ry="2661.56"/>
    <ellipse class="fil7" cx="31957.65" cy="9591.84" rx="2661.57" ry="2661.56"/>
    <circle class="fil8" cx="22671.81" cy="24145.45" r="1774.38"/>
    <circle class="fil6" cx="67639.84" cy="5366.16" r="3548.75"/>
    <ellipse class="fil9" cx="80079.47" cy="36820.88" rx="2661.57" ry="2661.56"/>
    <circle class="fil8" cx="65995.35" cy="30248.42" r="3548.75"/>
    <circle class="fil6" cx="95102.41" cy="23910.52" r="1774.38"/>
   </g>
  </g>
 </g>
</svg>
